<svg id="Laag_1" data-name="Laag 1" xmlns="http://www.w3.org/2000/svg" viewBox="0 0 100 100"><path d="M87.52,74.26a6.25,6.25,0,0,1-.3,1.82H53.82a5.88,5.88,0,0,1-.2-1.82l3.45-.72c3.25-.91,4.16-2.33,4.26-5.27l.41-19.9V43.49C61.53,33.14,57,30.3,50.26,30.3a50.55,50.55,0,0,0-8.32.91V48.37l.3,19.9c0,2.74.92,4.26,3.66,5l4.77,1a6.25,6.25,0,0,1-.3,1.82H17a5.88,5.88,0,0,1-.2-1.82l3.45-.72c3.25-.91,4.17-2.33,4.27-5.27l.4-19.9V26.24H16.66V24.51c6.8-3.15,12.59-5.18,18.88-5.18,4.06,0,6.4,1.83,6.4,5.89V29c5.79-5.79,13.81-9.65,20.81-9.65,8.73,0,16,4.37,16,19.9v9.14l.31,19.9c0,2.74.91,4.26,3.65,5Z"/></svg>