<svg id="Layer_1" data-name="Layer 1" xmlns="http://www.w3.org/2000/svg" viewBox="0 0 1963 550"><defs><style>.cls-1{fill:#fff;}.cls-2{fill:#00adee;}</style></defs><path class="cls-1" d="M363,172.54c0-11.55-3.15-15.22-13.11-15.74l-22-1.59V112.73H416.5v39.34A82,82,0,0,1,491,104.86a110.32,110.32,0,0,1,50.38,11.53v78.18l-48.81,3.68V174.11c0-6.29-1-11-5.25-13.12-4.71-2.1-8.39-2.62-14.16-2.62-28.34,0-47.74,22.56-47.74,53V333.08l45.64,2.08v41.46H330.45V336.76l17.32-1.6c10-1,15.2-4.19,15.2-17.3Z"/><path class="cls-1" d="M843.8,104.86c38.82,0,117,12.06,117,132.74,0,100.72-56.14,146.89-125.4,146.89-70.3,0-116.45-45.12-116.45-140.08C718.94,135.29,789.74,104.86,843.8,104.86Zm53,141.13c0-58.76-14.16-95-56.13-95-41.46,0-58.24,35.67-58.24,86,0,48.78,6.82,101.25,57.2,101.25C880.52,338.32,896.78,300.55,896.78,246Z"/><path class="cls-1" d="M1019.6,172.54c0-11.55-3.14-15.22-13.1-15.74l-22-1.59V112.73h88.66v39.34a82,82,0,0,1,74.51-47.21A110.1,110.1,0,0,1,1198,116.39v78.18l-48.77,3.68V174.11c0-6.29-1-11-5.25-13.12-4.73-2.1-8.39-2.62-14.16-2.62-28.33,0-47.74,22.56-47.74,53V333.08l45.64,2.08v41.46H987.08V336.76l17.31-1.6c10-1,15.21-4.19,15.21-17.3Z"/><path class="cls-1" d="M1773.87,326.79c-18.35,26.22-50.34,40.91-85,40.91-52.46,0-81.31-28.86-81.31-90.77V171.48c0-11-4.19-14.16-13.13-14.68l-16.78-1.06v-43H1670V263.3c0,32,5.26,56.14,38.85,56.14,36.74,0,56.14-24.66,56.14-51.94v-95c0-11.55-3.17-15.74-13.13-15.74l-16.77-1.06v-43h92.32V366.65c0,86.57-43.53,122.24-121.73,122.24-33.05,0-76.57-6.29-98.6-17.32v-54.8l49.83-4.2v7.07c0,10,2.63,15.22,12.07,18.88,10,3.68,21.49,5.25,37.24,5.25,48.27,0,67.68-29.39,67.68-77.12Z"/><path class="cls-1" d="M1324.44,333.08V112.73h-93.9v43.54l18.35,1c10,0,13.14,3.67,13.14,15.22l.28,204.08h92v-42Z"/><path class="cls-1" d="M667.81,333.08V112.73h-93.9v43.54l18.34,1c10,0,13.13,3.67,13.13,15.22l-.29,204.08h92.62v-42Z"/><polygon class="cls-2" points="1494.13 156.8 1535.91 156.8 1535.72 112.73 1494.13 112.73 1494.13 156.8"/><path class="cls-1" d="M1541.76,325.2c-8.39,5.25-21.53,11-35.68,11-21.52,0-34.11-9.43-34.11-41.44V57.11h-34.1c-11,29.91-23.6,58.24-60.33,61.39l-5.23,38.3h37.25V296.87c0,36.72-.54,87.09,81.3,87.09,24.67,0,50.9-7.34,66.65-18.35Z"/><path class="cls-1" d="M206.43,104.86c-44.61,0-73.46,24.13-82.91,42V112.73H34.87v42.48l22,1.59c10,0,13.1,4.19,13.1,15.74l-.35,312.68H172.83V443.77l-42.49-2.09v-72.4c13.64,8.39,35.67,15.21,56.13,15.21,69.27,0,114.91-49.84,114.91-146.38C301.38,144.21,264.65,104.86,206.43,104.86ZM176.51,334.65c-13.64,0-32.53-4.2-46.17-13.13V200.87c0-24.13,23.09-45.13,53-45.13,27.8,0,53,17.85,53,87.62C236.34,289,221.1,334.65,176.51,334.65Z"/><path class="cls-1" d="M1883.24,335.42v6.21H1871v34.43h-7.56V341.63h-12.28v-6.21Z"/><path class="cls-1" d="M1909.34,361.06c.27.66.55,1.3.81,2,.27-.67.52-1.35.81-2a19.14,19.14,0,0,1,.9-1.88l12-22.51a3.23,3.23,0,0,1,.46-.67,1.2,1.2,0,0,1,.54-.37,2,2,0,0,1,.65-.14c.24,0,.54,0,.88,0h5.71v40.64h-6.67V349.81c0-.49,0-1,0-1.59s.07-1.18.13-1.78l-12.28,23.05a3.39,3.39,0,0,1-1.1,1.21,2.82,2.82,0,0,1-1.59.44h-1a2.76,2.76,0,0,1-1.58-.44,3.51,3.51,0,0,1-1.11-1.21l-12.42-23.13c.07.6.11,1.21.15,1.81s0,1.13,0,1.64v26.25h-6.66V335.42h5.7c.34,0,.62,0,.87,0a1.94,1.94,0,0,1,.66.14,1.17,1.17,0,0,1,.55.37,2.06,2.06,0,0,1,.48.67l12.14,22.57C1908.78,359.8,1909.07,360.43,1909.34,361.06Z"/></svg>