<svg id="Layer_1" data-name="Layer 1" fill="currentColor" xmlns="http://www.w3.org/2000/svg" viewBox="0 0 36 28"><path d="M8.21,27.18A7.08,7.08,0,0,1,4.08,26,8.23,8.23,0,0,1,1.4,22.45a12.85,12.85,0,0,1-.93-5A19,19,0,0,1,1.6,10.89,18.86,18.86,0,0,1,5.32,5,19.51,19.51,0,0,1,11.72.43l4.33,3.92a17,17,0,0,0-5,2.51,15.52,15.52,0,0,0-3.41,3.62,14.37,14.37,0,0,0-1.75,4.13l.41.2a4,4,0,0,1,1-.51,6.65,6.65,0,0,1,1.86-.2,5.53,5.53,0,0,1,2.58.71A5.36,5.36,0,0,1,14,16.92a6,6,0,0,1,.93,3.52A6.21,6.21,0,0,1,14,23.76a7,7,0,0,1-2.38,2.51A6.54,6.54,0,0,1,8.21,27.18Zm19.4,0A7.08,7.08,0,0,1,23.48,26a8.23,8.23,0,0,1-2.68-3.52,12.85,12.85,0,0,1-.93-5A18.81,18.81,0,0,1,21,10.89,18.65,18.65,0,0,1,24.72,5,19.51,19.51,0,0,1,31.12.43l4.33,3.92a17.09,17.09,0,0,0-5,2.51,15.52,15.52,0,0,0-3.41,3.62,14.37,14.37,0,0,0-1.75,4.13l.41.2a4,4,0,0,1,1-.51,6.65,6.65,0,0,1,1.86-.2,5.53,5.53,0,0,1,2.58.71,5.36,5.36,0,0,1,2.17,2.11,6,6,0,0,1,.93,3.52,6.21,6.21,0,0,1-.93,3.32A7,7,0,0,1,31,26.27,6.6,6.6,0,0,1,27.61,27.18Z"/></svg>