<svg id="Layer_1" data-name="Layer 1" xmlns="http://www.w3.org/2000/svg" viewBox="0 0 242.1 97.49"><defs><style>.cls-1{fill:#3f6ae2;}</style></defs><path d="M12.29,72.64a2.63,2.63,0,0,1-2.7,2.7H4.28a2.64,2.64,0,0,1-1.94-.77,2.61,2.61,0,0,1-.76-1.93V15a2.61,2.61,0,0,1,.76-1.93,2.64,2.64,0,0,1,1.94-.77H20.39a14.72,14.72,0,0,1,10.75,4.41,14.62,14.62,0,0,1,4.46,10.8V39.61a15.06,15.06,0,0,1-15.21,15.3h-8.1ZM24.71,27.1a4,4,0,0,0-1.31-3,4.51,4.51,0,0,0-3.19-1.22H12.29v21.6h7.92a4.5,4.5,0,0,0,3.19-1.21,3.87,3.87,0,0,0,1.31-2.93Z"/><path d="M89.77,72.19a4.13,4.13,0,0,1,.36,1.26q0,1.89-2.43,1.89H82.3a4,4,0,0,1-4.14-2.61L70.61,53.92H64.76V72.64a2.63,2.63,0,0,1-2.7,2.7H56.75a2.64,2.64,0,0,1-1.94-.77,2.61,2.61,0,0,1-.76-1.93V15a2.61,2.61,0,0,1,.76-1.93,2.64,2.64,0,0,1,1.94-.77H73A15.06,15.06,0,0,1,88.24,27.55V38.8a15.11,15.11,0,0,1-1.89,7.34,14.92,14.92,0,0,1-5.13,5.53ZM77.27,27.1a4,4,0,0,0-1.31-3,4.31,4.31,0,0,0-3.1-1.26h-8.1V43.39h8.1A4.31,4.31,0,0,0,76,42.13a4,4,0,0,0,1.31-3Z"/><path d="M143.14,73.18q0,2.16-2.34,2.16H109.31a2.09,2.09,0,0,1-1.54-.63,2.11,2.11,0,0,1-.62-1.53V67.06a2.11,2.11,0,0,1,.62-1.53,2.09,2.09,0,0,1,1.54-.63h10.34V22.78H109.31a2.09,2.09,0,0,1-1.54-.63,2.11,2.11,0,0,1-.62-1.53V14.5a2.11,2.11,0,0,1,.62-1.53,2.09,2.09,0,0,1,1.54-.63H140.8q2.34,0,2.34,2.16v6.12q0,2.16-2.34,2.16H130.54V64.9H140.8q2.34,0,2.34,2.16Z"/><path d="M197.77,58.6a16.69,16.69,0,0,1-5.35,12.46,19.61,19.61,0,0,1-26.6,0,16.79,16.79,0,0,1-5.4-12.51V29.08a16.63,16.63,0,0,1,5.4-12.46,19.66,19.66,0,0,1,26.6,0,16.69,16.69,0,0,1,5.35,12.46ZM187.06,28.54a6.31,6.31,0,0,0-2.34-4.86,8.56,8.56,0,0,0-11.16,0,6.31,6.31,0,0,0-2.34,4.86V59.05a6.43,6.43,0,0,0,2.34,4.9,8,8,0,0,0,5.58,2.12A8.14,8.14,0,0,0,184.72,64a6.31,6.31,0,0,0,2.34-4.86Z"/><path d="M232.87.73h5.49a2.17,2.17,0,0,1,1.53.59,2,2,0,0,1,.63,1.57V33.22q0,2.07-2.16,2.07h-4.23q-2.16,0-2.16-2.07V8.38a30.86,30.86,0,0,1-4.32.63q-1.89,0-1.89-2.07V3.7a1.92,1.92,0,0,1,1.89-2.07Z"/><rect class="cls-1" x="115.69" y="-28.05" width="10.71" height="238.9" rx="2.49" transform="translate(212.45 -29.65) rotate(90)"/></svg>